<mxfile host="app.diagrams.net" modified="2023-11-05T12:41:44.724Z" agent="Mozilla/5.0 (Macintosh; Intel Mac OS X 10_15_7) AppleWebKit/605.1.15 (KHTML, like Gecko) Version/17.0 Safari/605.1.15" etag="Lf-_O4gYFAt-r4icAuAs" version="22.0.8" type="github">
  <diagram name="Page-1" id="OJZ6qrbvp8AO6G9IM-0e">
    <mxGraphModel dx="854" dy="740" grid="1" gridSize="10" guides="1" tooltips="1" connect="1" arrows="1" fold="1" page="1" pageScale="1" pageWidth="827" pageHeight="1169" math="0" shadow="0">
      <root>
        <mxCell id="0" />
        <mxCell id="1" parent="0" />
        <mxCell id="ofrbrOU6WuKqBwXCUQYt-1" value="Endomondo" style="text;strokeColor=none;align=center;fillColor=none;html=1;verticalAlign=middle;whiteSpace=wrap;rounded=0;" parent="1" vertex="1">
          <mxGeometry x="10" y="10" width="140" height="30" as="geometry" />
        </mxCell>
        <mxCell id="ofrbrOU6WuKqBwXCUQYt-23" value="&amp;lt;&amp;lt;include&amp;gt;&amp;gt;" style="rounded=0;orthogonalLoop=1;jettySize=auto;html=1;dashed=1;exitX=1;exitY=0.5;exitDx=0;exitDy=0;" parent="1" source="ofrbrOU6WuKqBwXCUQYt-2" target="ofrbrOU6WuKqBwXCUQYt-22" edge="1">
          <mxGeometry x="-0.0059" relative="1" as="geometry">
            <mxPoint as="offset" />
          </mxGeometry>
        </mxCell>
        <mxCell id="ofrbrOU6WuKqBwXCUQYt-2" value="Zaloguj" style="ellipse;whiteSpace=wrap;html=1;" parent="1" vertex="1">
          <mxGeometry x="140" y="80" width="140" height="70" as="geometry" />
        </mxCell>
        <mxCell id="ofrbrOU6WuKqBwXCUQYt-13" value="" style="rounded=0;orthogonalLoop=1;jettySize=auto;html=1;entryX=0;entryY=0.5;entryDx=0;entryDy=0;" parent="1" source="ofrbrOU6WuKqBwXCUQYt-3" target="ofrbrOU6WuKqBwXCUQYt-2" edge="1">
          <mxGeometry relative="1" as="geometry" />
        </mxCell>
        <mxCell id="ofrbrOU6WuKqBwXCUQYt-16" value="" style="rounded=0;orthogonalLoop=1;jettySize=auto;html=1;" parent="1" source="ofrbrOU6WuKqBwXCUQYt-3" target="ofrbrOU6WuKqBwXCUQYt-9" edge="1">
          <mxGeometry relative="1" as="geometry" />
        </mxCell>
        <mxCell id="ofrbrOU6WuKqBwXCUQYt-33" style="rounded=0;orthogonalLoop=1;jettySize=auto;html=1;entryX=0;entryY=0.5;entryDx=0;entryDy=0;" parent="1" source="ofrbrOU6WuKqBwXCUQYt-3" target="ofrbrOU6WuKqBwXCUQYt-32" edge="1">
          <mxGeometry relative="1" as="geometry" />
        </mxCell>
        <mxCell id="ofrbrOU6WuKqBwXCUQYt-40" style="rounded=0;orthogonalLoop=1;jettySize=auto;html=1;entryX=0;entryY=0.5;entryDx=0;entryDy=0;" parent="1" source="ofrbrOU6WuKqBwXCUQYt-3" target="ofrbrOU6WuKqBwXCUQYt-11" edge="1">
          <mxGeometry relative="1" as="geometry" />
        </mxCell>
        <mxCell id="ofrbrOU6WuKqBwXCUQYt-48" style="rounded=0;orthogonalLoop=1;jettySize=auto;html=1;entryX=0;entryY=0.5;entryDx=0;entryDy=0;" parent="1" source="ofrbrOU6WuKqBwXCUQYt-3" target="ofrbrOU6WuKqBwXCUQYt-47" edge="1">
          <mxGeometry relative="1" as="geometry" />
        </mxCell>
        <mxCell id="ofrbrOU6WuKqBwXCUQYt-3" value="Klient" style="shape=umlActor;verticalLabelPosition=bottom;verticalAlign=top;html=1;outlineConnect=0;" parent="1" vertex="1">
          <mxGeometry x="10" y="400" width="30" height="60" as="geometry" />
        </mxCell>
        <mxCell id="ofrbrOU6WuKqBwXCUQYt-9" value="Przegladaj książki" style="ellipse;whiteSpace=wrap;html=1;" parent="1" vertex="1">
          <mxGeometry x="150" y="320" width="140" height="70" as="geometry" />
        </mxCell>
        <mxCell id="bKNbuRZvTM2yg75jbdPu-3" value="&amp;lt;&amp;lt;include&amp;gt;&amp;gt;" style="rounded=0;orthogonalLoop=1;jettySize=auto;html=1;entryX=0;entryY=0.5;entryDx=0;entryDy=0;dashed=1;" edge="1" parent="1" source="ofrbrOU6WuKqBwXCUQYt-11" target="bKNbuRZvTM2yg75jbdPu-2">
          <mxGeometry relative="1" as="geometry" />
        </mxCell>
        <mxCell id="ofrbrOU6WuKqBwXCUQYt-11" value="Kup książkę" style="ellipse;whiteSpace=wrap;html=1;" parent="1" vertex="1">
          <mxGeometry x="150" y="470" width="140" height="70" as="geometry" />
        </mxCell>
        <mxCell id="ofrbrOU6WuKqBwXCUQYt-22" value="Weryfikacja Logowania" style="ellipse;whiteSpace=wrap;html=1;" parent="1" vertex="1">
          <mxGeometry x="380" y="30" width="140" height="70" as="geometry" />
        </mxCell>
        <mxCell id="ofrbrOU6WuKqBwXCUQYt-25" value="&amp;lt;&amp;lt;extend&amp;gt;&amp;gt;" style="rounded=0;orthogonalLoop=1;jettySize=auto;html=1;" parent="1" source="ofrbrOU6WuKqBwXCUQYt-24" target="ofrbrOU6WuKqBwXCUQYt-22" edge="1">
          <mxGeometry relative="1" as="geometry" />
        </mxCell>
        <mxCell id="ofrbrOU6WuKqBwXCUQYt-24" value="Błąd Logowania" style="ellipse;whiteSpace=wrap;html=1;" parent="1" vertex="1">
          <mxGeometry x="660" y="30" width="140" height="70" as="geometry" />
        </mxCell>
        <mxCell id="ofrbrOU6WuKqBwXCUQYt-32" value="Stwórz konto" style="ellipse;whiteSpace=wrap;html=1;" parent="1" vertex="1">
          <mxGeometry x="140" y="190" width="140" height="70" as="geometry" />
        </mxCell>
        <mxCell id="ofrbrOU6WuKqBwXCUQYt-34" value="&amp;lt;&amp;lt;include&amp;gt;&amp;gt;" style="rounded=0;orthogonalLoop=1;jettySize=auto;html=1;dashed=1;exitX=1;exitY=0.5;exitDx=0;exitDy=0;" parent="1" source="ofrbrOU6WuKqBwXCUQYt-32" target="ofrbrOU6WuKqBwXCUQYt-35" edge="1">
          <mxGeometry x="-0.0059" relative="1" as="geometry">
            <mxPoint x="390" y="330" as="sourcePoint" />
            <mxPoint as="offset" />
          </mxGeometry>
        </mxCell>
        <mxCell id="ofrbrOU6WuKqBwXCUQYt-35" value="Weryfikacja Konta" style="ellipse;whiteSpace=wrap;html=1;" parent="1" vertex="1">
          <mxGeometry x="380" y="130" width="140" height="70" as="geometry" />
        </mxCell>
        <mxCell id="ofrbrOU6WuKqBwXCUQYt-36" value="&amp;lt;&amp;lt;extend&amp;gt;&amp;gt;" style="rounded=0;orthogonalLoop=1;jettySize=auto;html=1;" parent="1" source="ofrbrOU6WuKqBwXCUQYt-37" target="ofrbrOU6WuKqBwXCUQYt-35" edge="1">
          <mxGeometry relative="1" as="geometry" />
        </mxCell>
        <mxCell id="ofrbrOU6WuKqBwXCUQYt-37" value="Błąd Tworzenia Konta" style="ellipse;whiteSpace=wrap;html=1;" parent="1" vertex="1">
          <mxGeometry x="660" y="120" width="140" height="70" as="geometry" />
        </mxCell>
        <mxCell id="ofrbrOU6WuKqBwXCUQYt-47" value="Wyloguj" style="ellipse;whiteSpace=wrap;html=1;" parent="1" vertex="1">
          <mxGeometry x="140" y="710" width="140" height="70" as="geometry" />
        </mxCell>
        <mxCell id="bKNbuRZvTM2yg75jbdPu-8" style="rounded=0;orthogonalLoop=1;jettySize=auto;html=1;entryX=1;entryY=0.5;entryDx=0;entryDy=0;" edge="1" parent="1" source="bKNbuRZvTM2yg75jbdPu-1" target="bKNbuRZvTM2yg75jbdPu-7">
          <mxGeometry relative="1" as="geometry" />
        </mxCell>
        <mxCell id="bKNbuRZvTM2yg75jbdPu-1" value="Sprzedawca" style="shape=umlActor;verticalLabelPosition=bottom;verticalAlign=top;html=1;outlineConnect=0;" vertex="1" parent="1">
          <mxGeometry x="780" y="255" width="30" height="60" as="geometry" />
        </mxCell>
        <mxCell id="bKNbuRZvTM2yg75jbdPu-15" value="&amp;lt;&amp;lt;include&amp;gt;" style="edgeStyle=orthogonalEdgeStyle;rounded=0;orthogonalLoop=1;jettySize=auto;html=1;entryX=0.5;entryY=0;entryDx=0;entryDy=0;dashed=1;" edge="1" parent="1" source="bKNbuRZvTM2yg75jbdPu-2" target="bKNbuRZvTM2yg75jbdPu-13">
          <mxGeometry relative="1" as="geometry" />
        </mxCell>
        <mxCell id="bKNbuRZvTM2yg75jbdPu-2" value="Sprawdz dostępność" style="ellipse;whiteSpace=wrap;html=1;" vertex="1" parent="1">
          <mxGeometry x="400" y="510" width="140" height="70" as="geometry" />
        </mxCell>
        <mxCell id="bKNbuRZvTM2yg75jbdPu-5" style="rounded=0;orthogonalLoop=1;jettySize=auto;html=1;entryX=1;entryY=0.5;entryDx=0;entryDy=0;" edge="1" parent="1" source="bKNbuRZvTM2yg75jbdPu-4" target="bKNbuRZvTM2yg75jbdPu-2">
          <mxGeometry relative="1" as="geometry" />
        </mxCell>
        <mxCell id="bKNbuRZvTM2yg75jbdPu-6" value="&amp;lt;&amp;lt;extend&amp;gt;&amp;gt;" style="edgeLabel;html=1;align=center;verticalAlign=middle;resizable=0;points=[];" vertex="1" connectable="0" parent="bKNbuRZvTM2yg75jbdPu-5">
          <mxGeometry x="-0.1311" y="-2" relative="1" as="geometry">
            <mxPoint as="offset" />
          </mxGeometry>
        </mxCell>
        <mxCell id="bKNbuRZvTM2yg75jbdPu-4" value="Brak książki" style="ellipse;whiteSpace=wrap;html=1;" vertex="1" parent="1">
          <mxGeometry x="700" y="560" width="140" height="70" as="geometry" />
        </mxCell>
        <mxCell id="bKNbuRZvTM2yg75jbdPu-16" value="&amp;lt;&amp;lt;incliude&amp;gt;&amp;gt;" style="rounded=0;orthogonalLoop=1;jettySize=auto;html=1;entryX=0.5;entryY=0;entryDx=0;entryDy=0;dashed=1;" edge="1" parent="1" source="bKNbuRZvTM2yg75jbdPu-7" target="bKNbuRZvTM2yg75jbdPu-9">
          <mxGeometry relative="1" as="geometry" />
        </mxCell>
        <mxCell id="bKNbuRZvTM2yg75jbdPu-7" value="Sprzedaj książkę" style="ellipse;whiteSpace=wrap;html=1;" vertex="1" parent="1">
          <mxGeometry x="570" y="250" width="140" height="70" as="geometry" />
        </mxCell>
        <mxCell id="bKNbuRZvTM2yg75jbdPu-9" value="Wyslij zamówienia" style="ellipse;whiteSpace=wrap;html=1;" vertex="1" parent="1">
          <mxGeometry x="570" y="380" width="140" height="70" as="geometry" />
        </mxCell>
        <mxCell id="bKNbuRZvTM2yg75jbdPu-13" value="Dodaj do zamówienia" style="ellipse;whiteSpace=wrap;html=1;" vertex="1" parent="1">
          <mxGeometry x="400" y="690" width="140" height="70" as="geometry" />
        </mxCell>
        <mxCell id="bKNbuRZvTM2yg75jbdPu-18" style="edgeStyle=orthogonalEdgeStyle;rounded=0;orthogonalLoop=1;jettySize=auto;html=1;entryX=0;entryY=0.5;entryDx=0;entryDy=0;" edge="1" parent="1" source="bKNbuRZvTM2yg75jbdPu-17" target="bKNbuRZvTM2yg75jbdPu-7">
          <mxGeometry relative="1" as="geometry" />
        </mxCell>
        <mxCell id="bKNbuRZvTM2yg75jbdPu-19" value="&amp;lt;&amp;lt;extend&amp;gt;&amp;gt;" style="edgeLabel;html=1;align=center;verticalAlign=middle;resizable=0;points=[];" vertex="1" connectable="0" parent="bKNbuRZvTM2yg75jbdPu-18">
          <mxGeometry x="0.175" y="1" relative="1" as="geometry">
            <mxPoint as="offset" />
          </mxGeometry>
        </mxCell>
        <mxCell id="bKNbuRZvTM2yg75jbdPu-17" value="Brak zapłaty" style="ellipse;whiteSpace=wrap;html=1;" vertex="1" parent="1">
          <mxGeometry x="290" y="250" width="140" height="70" as="geometry" />
        </mxCell>
        <mxCell id="bKNbuRZvTM2yg75jbdPu-20" value="Zaplac" style="ellipse;whiteSpace=wrap;html=1;" vertex="1" parent="1">
          <mxGeometry x="150" y="585" width="140" height="70" as="geometry" />
        </mxCell>
        <mxCell id="bKNbuRZvTM2yg75jbdPu-21" style="rounded=0;orthogonalLoop=1;jettySize=auto;html=1;entryX=0.007;entryY=0.343;entryDx=0;entryDy=0;entryPerimeter=0;" edge="1" parent="1" source="ofrbrOU6WuKqBwXCUQYt-3" target="bKNbuRZvTM2yg75jbdPu-20">
          <mxGeometry relative="1" as="geometry" />
        </mxCell>
      </root>
    </mxGraphModel>
  </diagram>
</mxfile>
